<svg xmlns="http://www.w3.org/2000/svg"   width="15pt" height="15pt" viewBox="0 0 15 15">
    <defs>
        <symbol id="close">
           <path style=" stroke:none;fill-rule:nonzero;fill:#fff;fill-opacity:1;" d="M 9.976562 7.003906 L 14.621094 2.671875 C 15.132812 2.191406 15.132812 1.414062 14.621094 0.9375 L 14 0.359375 C 13.488281 -0.117188 12.65625 -0.117188 12.144531 0.359375 L 7.503906 4.691406 L 2.859375 0.359375 C 2.347656 -0.121094 1.515625 -0.121094 1.003906 0.359375 L 0.382812 0.9375 C -0.128906 1.414062 -0.128906 2.191406 0.382812 2.667969 L 5.027344 7.003906 L 0.386719 11.335938 C -0.128906 11.8125 -0.128906 12.589844 0.386719 13.066406 L 1.003906 13.644531 C 1.515625 14.125 2.347656 14.125 2.859375 13.644531 L 7.503906 9.3125 L 12.144531 13.644531 C 12.65625 14.125 13.488281 14.125 14 13.644531 L 14.621094 13.066406 C 15.132812 12.589844 15.132812 11.8125 14.621094 11.335938 Z M 9.976562 7.003906 "/>
        </symbol>
    </defs>
</svg> 